<svg version="1.1" id="Layer_1" xmlns="http://www.w3.org/2000/svg" xmlns:xlink="http://www.w3.org/1999/xlink" x="0px" y="0px"
	 width="100%" viewBox="0 0 600 600" enable-background="new 0 0 600 600" xml:space="preserve">
<path fill="#FFFFFF" opacity="1.000000" stroke="none" 
	d="
M601.000000,158.000000 
	C601.000000,305.999969 601.000000,453.499969 601.000000,601.000000 
	C401.000061,601.000000 201.000122,601.000000 1.000140,601.000000 
	C1.000093,401.000092 1.000093,201.000198 1.000047,1.000220 
	C200.999863,1.000147 400.999725,1.000147 600.999756,1.000073 
	C601.000000,53.166668 601.000000,105.333336 601.000000,158.000000 
M570.966003,309.500000 
	C570.966003,218.423737 570.966003,127.347481 570.966003,36.431343 
	C390.571869,36.431343 210.871292,36.431343 31.290268,36.431343 
	C31.290268,213.081619 31.290268,389.334351 31.290268,565.686523 
	C211.249374,565.686523 390.951935,565.686523 570.966003,565.686523 
	C570.966003,480.422424 570.966003,395.461212 570.966003,309.500000 
z"/>
<path fill="#13497E" opacity="1.000000" stroke="none" 
	d="
M570.966003,310.000000 
	C570.966003,395.461212 570.966003,480.422424 570.966003,565.686523 
	C390.951935,565.686523 211.249374,565.686523 31.290268,565.686523 
	C31.290268,389.334351 31.290268,213.081619 31.290268,36.431343 
	C210.871292,36.431343 390.571869,36.431343 570.966003,36.431343 
	C570.966003,127.347481 570.966003,218.423737 570.966003,310.000000 
M38.404762,445.499878 
	C38.404762,483.235809 38.404762,520.971741 38.404762,558.613831 
	C213.985382,558.613831 388.727020,558.613831 563.544189,558.613831 
	C563.544189,386.725372 563.544189,215.169739 563.544189,43.425133 
	C388.484283,43.425133 213.747040,43.425133 38.404934,43.425133 
	C38.404934,177.282272 38.404934,310.891052 38.404762,445.499878 
z"/>
<path fill="#FBFCFD" opacity="1.000000" stroke="none" 
	d="
M38.404846,444.999878 
	C38.404934,310.891052 38.404934,177.282272 38.404934,43.425133 
	C213.747040,43.425133 388.484283,43.425133 563.544189,43.425133 
	C563.544189,215.169739 563.544189,386.725372 563.544189,558.613831 
	C388.727020,558.613831 213.985382,558.613831 38.404762,558.613831 
	C38.404762,520.971741 38.404762,483.235809 38.404846,444.999878 
M62.071064,123.500000 
	C62.071064,260.743195 62.071064,397.986420 62.071064,535.348755 
	C221.677292,535.348755 380.691772,535.348755 539.596985,535.348755 
	C539.596985,378.917480 539.596985,222.874985 539.596985,66.817955 
	C380.330078,66.817955 221.437454,66.817955 62.071072,66.817955 
	C62.071072,85.583420 62.071072,104.041710 62.071064,123.500000 
z"/>
<path fill="#10477D" opacity="1.000000" stroke="none" 
	d="
M62.071068,123.000000 
	C62.071072,104.041710 62.071072,85.583420 62.071072,66.817955 
	C221.437454,66.817955 380.330078,66.817955 539.596985,66.817955 
	C539.596985,222.874985 539.596985,378.917480 539.596985,535.348755 
	C380.691772,535.348755 221.677292,535.348755 62.071064,535.348755 
	C62.071064,397.986420 62.071064,260.743195 62.071068,123.000000 
M298.210754,390.777893 
	C304.484436,365.660583 310.758118,340.543274 317.031830,315.425934 
	C317.171234,315.491547 317.310638,315.557190 317.450043,315.622803 
	C317.450043,368.561432 317.450043,421.500061 317.450043,474.683228 
	C341.220337,474.683228 364.953308,474.683228 388.903046,474.683228 
	C388.903046,391.868530 388.903046,309.313049 388.903046,226.534546 
	C387.840607,226.434937 387.039551,226.294495 386.238464,226.294159 
	C356.074341,226.281769 325.910034,226.329941 295.746399,226.206741 
	C292.757599,226.194519 291.746429,227.358917 291.027802,229.972946 
	C287.276367,243.618301 283.217926,257.180237 279.548645,270.847015 
	C269.536285,308.139191 259.668091,345.470001 249.709915,382.776764 
	C249.585373,383.243378 249.026733,383.594147 248.396164,384.311218 
	C246.297302,375.226318 244.594284,366.555786 242.278976,358.051971 
	C230.600922,315.160095 218.727753,272.321259 207.055237,229.427872 
	C206.202057,226.292725 204.392944,226.251175 201.916824,226.254608 
	C172.252701,226.295715 142.588516,226.277008 112.924355,226.295883 
	C111.653801,226.296692 110.383377,226.510788 109.232452,226.614716 
	C109.232452,309.556946 109.232452,392.113281 109.232452,474.573303 
	C133.355438,474.573303 157.088440,474.573303 180.614334,474.573303 
	C180.614334,422.213898 180.614334,370.222626 180.614334,317.515289 
	C194.214676,370.483490 207.603531,422.628082 220.992462,474.772888 
	C239.947723,474.772888 258.248169,474.772888 277.019562,474.772888 
	C284.023285,447.046173 291.028259,419.314484 298.210754,390.777893 
M376.021179,136.605072 
	C376.021179,158.687592 376.021179,180.770111 376.021179,202.771301 
	C386.056854,202.771301 395.431427,202.771301 405.012878,202.771301 
	C405.012878,197.214066 404.999939,192.064651 405.015778,186.915344 
	C405.042480,178.256836 404.810730,169.585587 405.211578,160.943985 
	C405.536957,153.929977 409.400818,150.413132 415.477417,150.558655 
	C421.522552,150.703430 424.624908,153.866623 425.030975,160.997238 
	C425.361938,166.808502 425.222809,172.648010 425.242035,178.475159 
	C425.268799,186.584488 425.248810,194.693970 425.248810,202.762787 
	C435.236237,202.762787 444.606628,202.762787 454.137177,202.762787 
	C454.137177,189.861389 454.093719,177.377136 454.174133,164.893677 
	C454.190063,162.419525 454.409180,159.879944 455.010529,157.490280 
	C456.257233,152.535690 459.675507,150.337097 465.118317,150.574783 
	C470.232697,150.798141 473.120819,153.185516 473.915466,158.362869 
	C474.367126,161.305603 474.357971,164.335236 474.369781,167.326462 
	C474.416260,179.112778 474.388824,190.899384 474.388824,202.847763 
	C484.284851,202.847763 493.665680,202.847763 503.147736,202.847763 
	C503.147736,184.555191 503.506012,166.585159 503.008270,148.638855 
	C502.726746,138.487915 496.233459,131.061417 486.313202,128.698593 
	C481.401031,127.528610 476.091248,127.350716 471.021210,127.671127 
	C462.271606,128.224075 455.590729,133.211060 449.714691,140.007599 
	C444.204773,131.145996 436.674316,127.025635 426.855438,127.301857 
	C417.403809,127.567749 409.658875,131.497009 402.787689,139.898911 
	C402.787689,135.502090 402.787689,132.623291 402.787689,129.536011 
	C393.697113,129.536011 385.123322,129.536011 376.021179,129.536011 
	C376.021179,131.741028 376.021179,133.689590 376.021179,136.605072 
z"/>
<path fill="#FEFEFE" opacity="1.000000" stroke="none" 
	d="
M298.122009,391.180359 
	C291.028259,419.314484 284.023285,447.046173 277.019562,474.772888 
	C258.248169,474.772888 239.947723,474.772888 220.992462,474.772888 
	C207.603531,422.628082 194.214676,370.483490 180.614334,317.515289 
	C180.614334,370.222626 180.614334,422.213898 180.614334,474.573303 
	C157.088440,474.573303 133.355438,474.573303 109.232452,474.573303 
	C109.232452,392.113281 109.232452,309.556946 109.232452,226.614716 
	C110.383377,226.510788 111.653801,226.296692 112.924355,226.295883 
	C142.588516,226.277008 172.252701,226.295715 201.916824,226.254608 
	C204.392944,226.251175 206.202057,226.292725 207.055237,229.427872 
	C218.727753,272.321259 230.600922,315.160095 242.278976,358.051971 
	C244.594284,366.555786 246.297302,375.226318 248.396164,384.311218 
	C249.026733,383.594147 249.585373,383.243378 249.709915,382.776764 
	C259.668091,345.470001 269.536285,308.139191 279.548645,270.847015 
	C283.217926,257.180237 287.276367,243.618301 291.027802,229.972946 
	C291.746429,227.358917 292.757599,226.194519 295.746399,226.206741 
	C325.910034,226.329941 356.074341,226.281769 386.238464,226.294159 
	C387.039551,226.294495 387.840607,226.434937 388.903046,226.534546 
	C388.903046,309.313049 388.903046,391.868530 388.903046,474.683228 
	C364.953308,474.683228 341.220337,474.683228 317.450043,474.683228 
	C317.450043,421.500061 317.450043,368.561432 317.450043,315.622803 
	C317.310638,315.557190 317.171234,315.491547 317.031830,315.425934 
	C310.758118,340.543274 304.484436,365.660583 298.122009,391.180359 
z"/>
<path fill="#FCFCFD" opacity="1.000000" stroke="none" 
	d="
M376.021179,136.121613 
	C376.021179,133.689590 376.021179,131.741028 376.021179,129.536011 
	C385.123322,129.536011 393.697113,129.536011 402.787689,129.536011 
	C402.787689,132.623291 402.787689,135.502090 402.787689,139.898911 
	C409.658875,131.497009 417.403809,127.567749 426.855438,127.301857 
	C436.674316,127.025635 444.204773,131.145996 449.714691,140.007599 
	C455.590729,133.211060 462.271606,128.224075 471.021210,127.671127 
	C476.091248,127.350716 481.401031,127.528610 486.313202,128.698593 
	C496.233459,131.061417 502.726746,138.487915 503.008270,148.638855 
	C503.506012,166.585159 503.147736,184.555191 503.147736,202.847763 
	C493.665680,202.847763 484.284851,202.847763 474.388824,202.847763 
	C474.388824,190.899384 474.416260,179.112778 474.369781,167.326462 
	C474.357971,164.335236 474.367126,161.305603 473.915466,158.362869 
	C473.120819,153.185516 470.232697,150.798141 465.118317,150.574783 
	C459.675507,150.337097 456.257233,152.535690 455.010529,157.490280 
	C454.409180,159.879944 454.190063,162.419525 454.174133,164.893677 
	C454.093719,177.377136 454.137177,189.861389 454.137177,202.762787 
	C444.606628,202.762787 435.236237,202.762787 425.248810,202.762787 
	C425.248810,194.693970 425.268799,186.584488 425.242035,178.475159 
	C425.222809,172.648010 425.361938,166.808502 425.030975,160.997238 
	C424.624908,153.866623 421.522552,150.703430 415.477417,150.558655 
	C409.400818,150.413132 405.536957,153.929977 405.211578,160.943985 
	C404.810730,169.585587 405.042480,178.256836 405.015778,186.915344 
	C404.999939,192.064651 405.012878,197.214066 405.012878,202.771301 
	C395.431427,202.771301 386.056854,202.771301 376.021179,202.771301 
	C376.021179,180.770111 376.021179,158.687592 376.021179,136.121613 
z"/>
</svg>